<svg xmlns="http://www.w3.org/2000/svg" width="541" height="296" viewBox="0 0 541 296" fill="none"><g filter="url(#filter0_d_20355_57260)"><rect x="429" y="145" width="97" height="136" rx="8" fill="white"></rect></g><rect x="442" y="241" width="37.5258" height="4.15278" rx="2.07639" fill="#E7EEFF"></rect><rect x="442" y="249.306" width="70" height="4.15278" rx="2.07639" fill="#E7EEFF"></rect><rect x="442" y="258" width="70" height="4.15278" rx="2.07639" fill="#E7EEFF"></rect><rect x="442" y="266" width="70" height="4.15278" rx="2.07639" fill="#E7EEFF"></rect><path d="M429 153C429 148.582 432.582 145 437 145H518C522.418 145 526 148.582 526 153V228H429V153Z" fill="#E7EEFF"></path><g filter="url(#filter1_d_20355_57260)"><rect x="319" y="145" width="102" height="136" rx="8" fill="white"></rect></g><path d="M353.547 219.801L353.547 263.076C353.547 266.832 356.592 269.877 360.347 269.877C364.103 269.877 367.148 266.832 367.148 263.076L367.148 219.801C367.148 216.045 364.103 213 360.347 213C356.592 213 353.547 216.045 353.547 219.801Z" fill="#76A5FF"></path><path d="M335 234.638L335 263.076C335 266.832 338.045 269.877 341.8 269.877C345.556 269.877 348.601 266.832 348.601 263.076L348.601 234.638C348.601 230.882 345.556 227.838 341.8 227.838C338.045 227.838 335 230.882 335 234.638Z" fill="#9FC0FF"></path><path d="M372.094 245.766L372.094 263.076C372.094 266.832 375.138 269.877 378.894 269.877C382.65 269.877 385.695 266.832 385.695 263.076L385.695 245.766C385.695 242.01 382.65 238.966 378.894 238.966C375.138 238.966 372.094 242.01 372.094 245.766Z" fill="#FECE4D"></path><path d="M390.641 254.421L390.641 263.076C390.641 266.832 393.685 269.877 397.441 269.877C401.197 269.877 404.242 266.832 404.242 263.076L404.242 254.421C404.242 250.666 401.197 247.621 397.441 247.621C393.685 247.621 390.641 250.666 390.641 254.421Z" fill="#A5A6F6"></path><rect x="332.328" y="167.255" width="37.7818" height="4.94593" rx="2.47296" fill="#E7EEFF"></rect><rect x="332.328" y="177.146" width="70.4776" height="4.94593" rx="2.47296" fill="#E7EEFF"></rect><rect x="332.328" y="185.802" width="70.4776" height="4.94593" rx="2.47296" fill="#E7EEFF"></rect><rect x="332.328" y="194" width="70.4776" height="4.94593" rx="2.47296" fill="#E7EEFF"></rect><g filter="url(#filter2_d_20355_57260)"><rect x="316" y="10" width="210" height="126.496" rx="8" fill="white"></rect></g><rect x="442.641" y="34.1045" width="62.5117" height="16.6421" rx="3.5" stroke="#E7EEFF"></rect><rect x="442.641" y="56.1572" width="62.5117" height="16.6421" rx="3.5" stroke="#E7EEFF"></rect><rect x="442.641" y="77.3281" width="62.5117" height="16.6421" rx="3.5" stroke="#E7EEFF"></rect><rect x="442.641" y="99.3818" width="62.5117" height="16.6421" rx="3.5" stroke="#E7EEFF"></rect><rect x="448" y="38.7295" width="8.05681" height="7.32437" rx="3" fill="#E7EEFF"></rect><rect x="458.238" y="38.4336" width="17.7106" height="2.41509" rx="1.20754" fill="#E7EEFF"></rect><rect x="458.238" y="43.2637" width="39.4464" height="2.41509" rx="1.20754" fill="#E7EEFF"></rect><rect x="448" y="60.4678" width="8.05681" height="7.32437" rx="3" fill="#E7EEFF"></rect><rect x="458.238" y="60.1719" width="17.7106" height="2.41509" rx="1.20754" fill="#E7EEFF"></rect><rect x="458.238" y="65.002" width="39.4464" height="2.41509" rx="1.20754" fill="#E7EEFF"></rect><rect x="448" y="82.2012" width="8.05681" height="7.32437" rx="3" fill="#7879F1"></rect><rect x="458.238" y="81.9053" width="17.7106" height="2.41509" rx="1.20754" fill="#E7EEFF"></rect><rect x="458.238" y="86.7354" width="39.4464" height="2.41509" rx="1.20754" fill="#E7EEFF"></rect><rect x="448" y="103.939" width="8.05681" height="7.32437" rx="3" fill="#FECE4D"></rect><rect x="458.238" y="103.644" width="17.7106" height="2.41509" rx="1.20754" fill="#E7EEFF"></rect><rect x="458.238" y="108.474" width="39.4464" height="2.41509" rx="1.20754" fill="#E7EEFF"></rect><path d="M379.582 74.9717V37.1768C372.106 37.1768 364.797 39.3939 358.58 43.5477C352.364 47.7016 347.519 53.6057 344.658 60.5133C341.797 67.4208 341.049 75.0216 342.508 82.3545C343.967 89.6873 347.568 96.4227 352.855 101.709C358.142 106.995 364.878 110.595 372.211 112.053C379.544 113.511 387.145 112.761 394.052 109.899C400.959 107.037 406.862 102.191 411.015 95.9744C415.168 89.7572 417.384 82.4483 417.383 74.9717C417.383 74.7211 417.383 74.4765 417.347 74.2259L379.582 74.9717Z" fill="#7879F1"></path><path d="M421.706 69.488C421.516 59.4588 417.507 49.906 410.539 42.8812C403.57 35.8564 394.199 31.9199 384.438 31.917V70.2503L421.706 69.488Z" fill="#FECE4D"></path><g filter="url(#filter3_dd_20355_57260)"><rect x="26" y="10" width="271" height="271" rx="8" fill="#C6DBFF"></rect></g><path d="M184.318 107.516V233.343L95.8672 233.846V107.516H184.318Z" fill="#76A5FF"></path><path d="M253.004 107.639H184.293V233.466H253.004V107.639Z" fill="white"></path><path d="M206.784 56.0039L177.803 115.657H170.238L100.908 106.043L95.5915 115.657H89.7578L135.661 56.2205L206.784 56.0039Z" fill="#3D7FFC"></path><path d="M210.26 56.0039L181.28 115.657H93.2344L139.137 56.2205L210.26 56.0039Z" fill="#76A5FF"></path><path d="M262.579 118.967H182.659L135.422 56.002L162.015 56.0074L213.964 56.0165L262.579 118.967Z" fill="#3D7FFC"></path><path d="M262.584 118.963H247.941L162.02 56.0039L213.969 56.013L262.584 118.963Z" fill="#3D7FFC"></path><path d="M137.382 140.778L118.466 179.713H61L90.96 140.92L137.382 140.778Z" fill="#5D5FEF"></path><path d="M139.12 140.778L120.205 179.713H62.7383L92.6983 140.92L139.12 140.778Z" fill="#76A5FF"></path><path d="M120.079 179.716V234L62.7383 233.398V179.716H120.079Z" fill="#76A5FF"></path><path d="M168.615 179.716V233.398L120.059 234V179.716H168.615Z" fill="white"></path><path d="M173.955 182.018H121.795L90.9609 140.922L106.498 140.926L142.226 140.933L173.955 182.018Z" fill="#5D5FEF"></path><path d="M173.949 182.017H164.05L106.492 140.924L142.22 140.931L173.949 182.017Z" fill="#5D5FEF"></path><path d="M173.967 182.017H121.805V183.436H173.967V182.017Z" fill="#5D5FEF"></path><path d="M121.789 183.438L90.1094 142.019L90.9558 140.922L121.789 182.018V183.438Z" fill="#5D5FEF"></path><path d="M262.026 118.962H182.648V121.404H262.026V118.962Z" fill="#3D7FFC"></path><path d="M134.555 57.6524C134.467 57.7652 182.664 121.407 182.664 121.407V118.965L135.427 56L134.555 57.6524Z" fill="#3D7FFC"></path><path d="M26.4068 143.814C21.184 143.814 16.0785 142.265 11.736 139.363C7.3934 136.462 4.00877 132.337 2.01011 127.512C0.0114416 122.687 -0.511501 117.377 0.507411 112.255C1.52632 107.133 4.04132 102.427 7.73438 98.7344C11.4274 95.0413 16.1327 92.5263 21.2551 91.5074C26.3775 90.4885 31.687 91.0114 36.5122 93.0101C41.3374 95.0088 45.4616 98.3934 48.3632 102.736C51.2648 107.079 52.8136 112.184 52.8136 117.407C52.8055 124.408 50.0208 131.12 45.0703 136.07C40.1198 141.021 33.4078 143.806 26.4068 143.814Z" fill="#FECE4D"></path><path d="M26.4025 130.61C24.3022 130.607 22.2886 129.772 20.8035 128.287C19.3183 126.802 18.4829 124.788 18.4805 122.688H23.7618C23.7618 123.388 24.04 124.06 24.5353 124.555C25.0305 125.05 25.7021 125.329 26.4025 125.329C27.1029 125.329 27.7745 125.05 28.2697 124.555C28.765 124.06 29.0432 123.388 29.0432 122.688C29.0432 121.753 27.4588 120.887 25.2221 119.77C22.3781 118.347 18.4805 116.398 18.4805 112.125C18.4805 110.024 19.3151 108.009 20.8008 106.523C22.2864 105.038 24.3014 104.203 26.4025 104.203C28.5036 104.203 30.5186 105.038 32.0042 106.523C33.4899 108.009 34.3245 110.024 34.3245 112.125H29.0432C29.0432 111.425 28.765 110.753 28.2697 110.258C27.7745 109.763 27.1029 109.484 26.4025 109.484C25.7021 109.484 25.0305 109.763 24.5353 110.258C24.04 110.753 23.7618 111.425 23.7618 112.125C23.7618 113.06 25.3462 113.926 27.5829 115.043C30.4269 116.466 34.3245 118.415 34.3245 122.688C34.3221 124.788 33.4867 126.802 32.0015 128.287C30.5164 129.772 28.5028 130.607 26.4025 130.61Z" fill="white"></path><path d="M29.0431 101.565H23.7617V106.847H29.0431V101.565Z" fill="white"></path><path d="M29.0431 127.969H23.7617V133.25H29.0431V127.969Z" fill="white"></path><circle cx="26.4068" cy="50.4068" r="26.4068" fill="#5D5FEF"></circle><path fill-rule="evenodd" clip-rule="evenodd" d="M26.5894 66.553C20.1095 58.7667 14.8555 51.8589 14.8555 45.4716C14.8555 39.0843 20.1095 33.9023 26.5894 33.9023C33.0694 33.9023 38.3231 39.0816 38.3231 45.4716C38.3231 51.8616 33.0694 58.7667 26.5894 66.553Z" fill="white"></path><mask id="mask0_20355_57260" style="mask-type:alpha" maskUnits="userSpaceOnUse" x="429" y="144" width="97" height="78"><rect x="429" y="144" width="97" height="78" fill="#C6DBFF"></rect></mask><g mask="url(#mask0_20355_57260)"><mask id="mask1_20355_57260" style="mask-type:alpha" maskUnits="userSpaceOnUse" x="429" y="135" width="147" height="78"><rect x="429.5" y="135.5" width="145.382" height="76.8626" fill="#F5F8FF" stroke="black"></rect></mask><g mask="url(#mask1_20355_57260)"><path opacity="0.8" d="M429.741 218.584C425.502 218.577 422.985 213.844 425.35 210.326C425.83 209.61 426.478 209.023 427.237 208.614L432.561 205.748C436.797 203.468 440.478 200.282 443.342 196.417L450.994 186.092C452.17 184.504 453.611 183.128 455.251 182.026L455.867 181.612C460.844 178.268 467.267 177.967 472.536 180.83C474.687 182 476.543 183.644 477.963 185.638L481.136 190.095C485.726 196.542 494.638 198.117 501.16 193.634C503.074 192.319 504.644 190.563 505.737 188.515L514.859 171.434C516.127 169.059 518.007 167.065 520.304 165.659C525.692 162.361 532.562 162.759 537.533 166.656L539.94 168.544L553.389 182.46L562.849 193.719C565.329 196.67 569.29 197.922 573.015 196.933C576.592 195.983 580.285 198.005 581.412 201.531L582.49 204.907C584.692 211.797 579.544 218.835 572.31 218.823L429.741 218.584Z" stroke="#3D7FFC" stroke-width="3"></path><path d="M505.703 184.12L505.075 182.757L505.703 184.12C509.884 182.192 514.744 182.439 518.709 184.779L521.041 186.156L531.959 194.664L539.409 201.34C541.679 203.374 544.774 204.22 547.763 203.622L548.138 203.547C551.023 202.97 553.917 204.499 555.066 207.207C556.804 211.302 553.795 215.841 549.347 215.836L429.906 215.685C427.752 215.682 426.614 213.136 428.048 211.529C428.302 211.245 428.618 211.022 428.972 210.879L433.685 208.968C437.148 207.564 440.286 205.466 442.907 202.803L448.276 197.349C449.522 196.082 450.966 195.027 452.552 194.225L452.938 194.03C456.931 192.009 461.606 191.822 465.749 193.517L465.967 193.607C467.853 194.379 469.552 195.544 470.952 197.024L472.884 199.067C477.05 203.474 483.631 204.589 489.017 201.802C490.944 200.804 492.604 199.36 493.859 197.591L492.636 196.723L493.859 197.591L500.133 188.744C501.553 186.742 503.474 185.147 505.703 184.12Z" stroke="#5D5FEF" stroke-width="3"></path></g></g><defs><filter id="filter0_d_20355_57260" x="424" y="140" width="117" height="156" filterUnits="userSpaceOnUse" color-interpolation-filters="sRGB"><feFlood flood-opacity="0" result="BackgroundImageFix"></feFlood><feColorMatrix in="SourceAlpha" type="matrix" values="0 0 0 0 0 0 0 0 0 0 0 0 0 0 0 0 0 0 127 0" result="hardAlpha"></feColorMatrix><feOffset dx="5" dy="5"></feOffset><feGaussianBlur stdDeviation="5"></feGaussianBlur><feColorMatrix type="matrix" values="0 0 0 0 0.0941177 0 0 0 0 0.188235 0 0 0 0 0.247059 0 0 0 0.05 0"></feColorMatrix><feBlend mode="normal" in2="BackgroundImageFix" result="effect1_dropShadow_20355_57260"></feBlend><feBlend mode="normal" in="SourceGraphic" in2="effect1_dropShadow_20355_57260" result="shape"></feBlend></filter><filter id="filter1_d_20355_57260" x="314" y="140" width="122" height="156" filterUnits="userSpaceOnUse" color-interpolation-filters="sRGB"><feFlood flood-opacity="0" result="BackgroundImageFix"></feFlood><feColorMatrix in="SourceAlpha" type="matrix" values="0 0 0 0 0 0 0 0 0 0 0 0 0 0 0 0 0 0 127 0" result="hardAlpha"></feColorMatrix><feOffset dx="5" dy="5"></feOffset><feGaussianBlur stdDeviation="5"></feGaussianBlur><feColorMatrix type="matrix" values="0 0 0 0 0.0941177 0 0 0 0 0.188235 0 0 0 0 0.247059 0 0 0 0.05 0"></feColorMatrix><feBlend mode="normal" in2="BackgroundImageFix" result="effect1_dropShadow_20355_57260"></feBlend><feBlend mode="normal" in="SourceGraphic" in2="effect1_dropShadow_20355_57260" result="shape"></feBlend></filter><filter id="filter2_d_20355_57260" x="311" y="5" width="230" height="146.496" filterUnits="userSpaceOnUse" color-interpolation-filters="sRGB"><feFlood flood-opacity="0" result="BackgroundImageFix"></feFlood><feColorMatrix in="SourceAlpha" type="matrix" values="0 0 0 0 0 0 0 0 0 0 0 0 0 0 0 0 0 0 127 0" result="hardAlpha"></feColorMatrix><feOffset dx="5" dy="5"></feOffset><feGaussianBlur stdDeviation="5"></feGaussianBlur><feColorMatrix type="matrix" values="0 0 0 0 0.0941177 0 0 0 0 0.188235 0 0 0 0 0.247059 0 0 0 0.05 0"></feColorMatrix><feBlend mode="normal" in2="BackgroundImageFix" result="effect1_dropShadow_20355_57260"></feBlend><feBlend mode="normal" in="SourceGraphic" in2="effect1_dropShadow_20355_57260" result="shape"></feBlend></filter><filter id="filter3_dd_20355_57260" x="14" y="0" width="295" height="295" filterUnits="userSpaceOnUse" color-interpolation-filters="sRGB"><feFlood flood-opacity="0" result="BackgroundImageFix"></feFlood><feColorMatrix in="SourceAlpha" type="matrix" values="0 0 0 0 0 0 0 0 0 0 0 0 0 0 0 0 0 0 127 0" result="hardAlpha"></feColorMatrix><feOffset dy="4"></feOffset><feGaussianBlur stdDeviation="5"></feGaussianBlur><feColorMatrix type="matrix" values="0 0 0 0 0.607843 0 0 0 0 0.67451 0 0 0 0 0.737255 0 0 0 0.35 0"></feColorMatrix><feBlend mode="normal" in2="BackgroundImageFix" result="effect1_dropShadow_20355_57260"></feBlend><feColorMatrix in="SourceAlpha" type="matrix" values="0 0 0 0 0 0 0 0 0 0 0 0 0 0 0 0 0 0 127 0" result="hardAlpha"></feColorMatrix><feOffset dy="2"></feOffset><feGaussianBlur stdDeviation="6"></feGaussianBlur><feColorMatrix type="matrix" values="0 0 0 0 0.89625 0 0 0 0 0.930414 0 0 0 0 0.995833 0 0 0 1 0"></feColorMatrix><feBlend mode="normal" in2="effect1_dropShadow_20355_57260" result="effect2_dropShadow_20355_57260"></feBlend><feBlend mode="normal" in="SourceGraphic" in2="effect2_dropShadow_20355_57260" result="shape"></feBlend></filter></defs></svg>